

<svg xmlns="http://www.w3.org/2000/svg" width="200" height="200" 
  viewBox="-25 -25 250 250" > 
  <defs>
   <linearGradient id="lgrad" x1="0%" y1="0%" x2="100%" y2="100%" >
     <stop offset="0%" style="stop-color:#f94cf9;stop-opacity:1.00" />
     <stop offset="100%" style="stop-color:#9fa6ea;stop-opacity:1.00" />
   </linearGradient>
  </defs>
  <path d="M186.71403346189436 50.193610843894106 C176.58694877357897 33.32765272979992 142.19961145506898 9.933441444681517 123.83406542543881 2.881838334450009 C116.74335792495816 0.15930261547589808 101.13415302850467 -0.48576693114990044 93.57038893002174 0.20691355865972128 C83.36299724324776 1.1416943081930566 63.330455227679316 6.792944779270573 54.06420717905519 11.174874399687823 C47.96384956042532 14.059681454705236 36.648682125537285 21.823029068411504 31.98103632937969 26.69638084531681 C23.31596779277611 35.74332420692009 8.430831652749232 56.858732150532866 4.960438173803439 68.89563233427559 C0.5451263412917049 84.20993837204114 0.8977697744478288 117.38038137762322 5.478868465724631 132.64591388643018 C8.928506200801696 144.14109452698276 22.482433439473382 165.11149005591204 31.58465681273718 172.93381120282316 C43.852833038394486 183.4769071463784 74.63541994235969 196.7096184314531 90.55955162064869 199.5533923801535 C98.64909682465458 200.99804495981982 115.42852362926317 199.429698472747 123.34788441854585 197.23618818720848 C134.53036238654968 194.1388573428025 156.25124541089664 184.1411102437894 164.73210383078492 176.22174711747613 C176.51960257119484 165.21466761508114 194.7394089997116 136.66787215512713 197.8055662191672 120.83437583773755 C201.20422302619758 103.28386678466894 195.91646263512638 65.51961924221705 186.71403346189436 50.193610843894106Z" stroke="none" fill="url(#lgrad)"  />
</svg>