

<svg xmlns="http://www.w3.org/2000/svg" width="200" height="200" 
  viewBox="-25 -25 250 250" > 
  <defs>
   <linearGradient id="lgrad" x1="0%" y1="50%" x2="100%" y2="50%" >
     <stop offset="0%" style="stop-color:#00FF84;stop-opacity:1.00" />
     <stop offset="100%" style="stop-color:#008EE6;stop-opacity:1.00" />
   </linearGradient>
  </defs>
  <path d="M196.71084298081138 74.5635527256489 C193.23086506706537 62.3181770504104 180.5933258746457 39.294574260937466 171.6468633974016 30.2380693693611 C162.21090806608663 20.68605081095155 138.16675207116708 6.801567729842286 125.22282569921232 3.233223347332924 C113.585131919095 0.02497740770661183 88.42480864048515 -1.0186413488399872 76.9385532264721 2.6954796902439 C58.240848380534494 8.74144823680389 24.0968674533852 32.72831798762181 13.732659743470336 49.42385933007406 C4.607806998732508 64.12294299450308 0.08595018544162492 100.30871186780797 1.5516215534097029 117.54755770005998 C2.2690099224371423 125.98529331105142 8.646612230986115 142.17750312781914 13.057376892100464 149.40627781079783 C19.055355118861094 159.23632690339906 34.708531945207675 176.95755255176584 44.426287552902096 183.1358074769667 C56.01723592889058 190.5049816754821 83.06848285240447 198.54428700941972 96.73187846200915 199.94658264099337 C103.62865419499553 200.65440950619163 117.59444458340346 198.73527025489912 124.30700050826418 197.00087487384454 C131.72080864074925 195.08528940611174 146.60116213348334 189.94335714364792 152.5268850856417 185.0936328005791 C168.2844340855657 172.1973550655229 192.7847342301402 137.36624995613167 198.4039744997989 117.79488136074322 C201.38885436864052 107.39878129691682 199.66756630326674 84.96769572557714 196.71084298081138 74.5635527256489Z" stroke="none" fill="url(#lgrad)"  />
</svg>